<?xml version="1.0" standalone="no"?><!DOCTYPE svg PUBLIC "-//W3C//DTD SVG 1.1//EN" "http://www.w3.org/Graphics/SVG/1.1/DTD/svg11.dtd"><svg height="1024" node-id="1" sillyvg="true" template-height="1024" template-width="1024" version="1.1" viewBox="0 0 1024 1024" width="1024" xmlns="http://www.w3.org/2000/svg" xmlns:xlink="http://www.w3.org/1999/xlink"><defs node-id="74"><linearGradient gradientUnits="objectBoundingBox" id="linearGradient-1" node-id="5" spreadMethod="pad" x1="0.49964714" x2="0.49964714" y1="1.0012307" y2="-0.0005895472"><stop offset="0" stop-color="#ffffff" stop-opacity="0.1"></stop><stop offset="1" stop-color="#d9e9ff"></stop></linearGradient><linearGradient gradientUnits="objectBoundingBox" id="linearGradient-2" node-id="8" spreadMethod="pad" x1="0.4987838" x2="0.4987838" y1="1.0006876" y2="-0.000640205"><stop offset="0" stop-color="#ffffff" stop-opacity="0.1"></stop><stop offset="0.09" stop-color="#fefeff" stop-opacity="0.13"></stop><stop offset="0.23" stop-color="#fbfcff" stop-opacity="0.21"></stop><stop offset="0.4" stop-color="#f5f9ff" stop-opacity="0.33"></stop><stop offset="0.59" stop-color="#eef5ff" stop-opacity="0.51"></stop><stop offset="0.79" stop-color="#e4efff" stop-opacity="0.74"></stop><stop offset="1" stop-color="#d9e9ff"></stop></linearGradient><linearGradient gradientUnits="objectBoundingBox" id="linearGradient-3" node-id="16" spreadMethod="pad" x1="0.5" x2="0.5" y1="1" y2="0"><stop offset="0" stop-color="#ffffff" stop-opacity="0.1"></stop><stop offset="0.13" stop-color="#fbfdff" stop-opacity="0.19"></stop><stop offset="0.41" stop-color="#f1f7ff" stop-opacity="0.43"></stop><stop offset="0.81" stop-color="#e1eeff" stop-opacity="0.82"></stop><stop offset="1" stop-color="#d9e9ff"></stop></linearGradient><linearGradient gradientUnits="objectBoundingBox" id="linearGradient-4" node-id="22" spreadMethod="pad" x1="0" x2="1" y1="0.5" y2="0.5"><stop offset="0" stop-color="#d4e7ff" stop-opacity="0.9"></stop><stop offset="1" stop-color="#b6d3fa"></stop></linearGradient><linearGradient gradientUnits="objectBoundingBox" id="linearGradient-5" node-id="25" spreadMethod="pad" x1="0.57514274" x2="0.37799394" y1="0.92172235" y2="-0.31235436"><stop offset="0" stop-color="#4f78b9"></stop><stop offset="1" stop-color="#143e81"></stop></linearGradient><linearGradient gradientUnits="objectBoundingBox" id="linearGradient-6" node-id="28" spreadMethod="pad" x1="0.5001866" x2="0.5001866" y1="0.99994844" y2="0.52024186"><stop offset="0" stop-color="#40a9ff"></stop><stop offset="1" stop-color="#69c0ff"></stop></linearGradient><linearGradient gradientUnits="objectBoundingBox" id="linearGradient-7" node-id="31" spreadMethod="pad" x1="0.19488552" x2="0.8068919" y1="0.5655979" y2="0.5"><stop offset="0" stop-color="#66b2ff"></stop><stop offset="1" stop-color="#0773e0"></stop></linearGradient><linearGradient gradientUnits="objectBoundingBox" id="linearGradient-8" node-id="34" spreadMethod="pad" x1="0.17859875" x2="0.79358053" y1="0.5" y2="0.5"><stop offset="0" stop-color="#b7d9fe"></stop><stop offset="1" stop-color="#3597fb"></stop></linearGradient><linearGradient gradientUnits="objectBoundingBox" id="linearGradient-9" node-id="37" spreadMethod="pad" x1="0.5" x2="0.5" y1="0" y2="1"><stop offset="0" stop-color="#abcefa"></stop><stop offset="1" stop-color="#0776ea"></stop></linearGradient><linearGradient gradientUnits="objectBoundingBox" id="linearGradient-10" node-id="40" spreadMethod="pad" x1="0.5" x2="0.5" y1="0" y2="1"><stop offset="0" stop-color="#c8e0ff"></stop><stop offset="1" stop-color="#4ca2fd"></stop></linearGradient></defs><path d="M 0.00 0.00 L 1024.00 0.00 L 1024.00 1024.00 L 0.00 1024.00 Z" fill="#ffffff" fill-rule="evenodd" hidden="true" node-id="154" stroke="none" target-height="1024" target-width="1024" target-x="0" target-y="0" visibility="hidden"></path><g node-id="156"><path d="M 0.00 0.00 L 1024.00 0.00 L 1024.00 1024.00 L 0.00 1024.00 Z" fill="#d8d8d8" fill-opacity="0" fill-rule="nonzero" group-id="1" hidden="true" id="矩形" node-id="45" stroke="none" target-height="1024" target-width="1024" target-x="0" target-y="0" visibility="hidden"></path></g><path d="M 199.70 542.00 L 204.00 590.00 L 177.00 586.80 Z" fill="#e4efff" fill-rule="nonzero" id="路径" node-id="46" stroke="none" target-height="48" target-width="27" target-x="177" target-y="542"></path><path d="M 200.00 542.00 L 230.00 579.90 L 204.50 590.00 Z" fill="#f3f8ff" fill-rule="nonzero" id="路径" node-id="47" stroke="none" target-height="48" target-width="30" target-x="200" target-y="542"></path><path d="M 100.30 554.00 L 106.00 615.00 L 71.00 610.90 Z" fill="#e4efff" fill-rule="nonzero" id="路径" node-id="48" stroke="none" target-height="61" target-width="35" target-x="71" target-y="554"></path><path d="M 99.00 554.00 L 138.00 602.20 L 105.00 615.00 Z" fill="#f3f8ff" fill-rule="nonzero" id="路径" node-id="49" stroke="none" target-height="61" target-width="39" target-x="99" target-y="554"></path><path d="M 147.60 512.00 L 157.00 613.00 L 94.00 606.70 Z" fill="#e4efff" fill-rule="nonzero" id="路径" node-id="50" stroke="none" target-height="101" target-width="63" target-x="94" target-y="512"></path><path d="M 147.00 512.00 L 214.00 591.40 L 156.50 613.00 Z" fill="#f3f8ff" fill-rule="nonzero" id="路径" node-id="51" stroke="none" target-height="101" target-width="67" target-x="147" target-y="512"></path><path d="M 167.10 290.00 L 165.90 285.10 L 164.20 280.50 L 161.90 276.20 L 159.20 272.20 L 156.10 268.60 L 152.60 265.40 L 148.80 262.60 L 144.60 260.20 L 140.20 258.40 L 135.60 257.00 L 130.80 256.20 L 125.80 256.00 L 121.70 256.20 L 113.90 257.60 L 106.50 260.50 L 103.00 262.50 L 96.60 267.30 L 89.70 265.00 L 82.40 264.30 L 78.50 264.40 L 74.80 265.00 L 71.30 266.00 L 67.90 267.40 L 64.60 269.20 L 61.60 271.30 L 58.90 273.70 L 56.40 276.50 L 54.20 279.50 L 52.40 282.70 L 51.00 286.20 L 49.80 290.00 L 46.00 291.20 L 42.40 292.90 L 39.20 295.10 L 36.30 297.70 L 33.90 300.70 L 31.90 304.00 L 30.40 307.60 L 29.40 311.40 L 29.00 315.50 L 29.40 319.20 L 30.20 322.70 L 31.40 326.00 L 33.10 329.10 L 35.10 331.90 L 37.40 334.50 L 40.00 336.70 L 42.90 338.60 L 46.10 340.10 L 49.40 341.20 L 52.90 341.80 L 56.50 342.00 L 160.30 342.00 L 164.00 341.80 L 167.50 341.20 L 170.90 340.10 L 174.00 338.60 L 176.90 336.70 L 179.60 334.50 L 181.90 332.00 L 183.90 329.10 L 185.60 326.00 L 186.80 322.70 L 187.60 319.20 L 188.00 315.50 L 187.60 311.40 L 186.60 307.60 L 185.10 304.00 L 183.10 300.70 L 180.60 297.70 L 177.80 295.10 L 174.50 292.90 L 171.00 291.20 L 167.10 290.00 Z" fill="url(#linearGradient-1)" fill-rule="nonzero" id="路径" node-id="52" stroke="none" target-height="86" target-width="159" target-x="29" target-y="256"></path><path d="M 949.50 119.80 L 946.80 115.00 L 943.90 110.60 L 940.50 106.50 L 936.80 102.80 L 932.80 99.40 L 928.50 96.40 L 923.90 93.80 L 919.10 91.70 L 914.10 90.00 L 909.00 88.70 L 903.70 88.00 L 898.30 87.70 L 892.20 88.00 L 886.30 89.00 L 880.50 90.60 L 874.90 92.80 L 869.60 95.50 L 864.50 98.90 L 859.60 90.90 L 853.50 84.00 L 848.90 80.00 L 844.00 76.60 L 838.70 73.70 L 833.10 71.30 L 827.40 69.60 L 821.40 68.50 L 812.20 68.00 L 802.90 69.10 L 793.80 71.70 L 785.50 75.60 L 780.40 78.90 L 775.80 82.70 L 771.50 87.00 L 767.70 91.70 L 764.50 96.70 L 761.70 102.10 L 758.80 110.80 L 757.20 120.10 L 752.30 122.00 L 747.70 124.20 L 743.40 126.70 L 739.40 129.70 L 735.70 133.00 L 732.30 136.50 L 729.20 140.30 L 726.40 144.40 L 724.00 148.70 L 722.00 153.10 L 720.40 157.80 L 719.20 162.60 L 718.40 167.50 L 718.00 172.50 L 718.10 177.60 L 718.70 182.80 L 719.70 187.90 L 721.20 192.80 L 723.00 197.50 L 725.30 201.90 L 727.90 206.10 L 730.80 210.10 L 734.10 213.70 L 737.70 217.10 L 741.50 220.20 L 745.60 222.90 L 749.90 225.20 L 754.50 227.20 L 759.20 228.80 L 764.10 230.00 L 769.20 230.70 L 774.40 231.00 L 932.90 231.00 L 938.30 230.80 L 943.40 230.10 L 948.30 228.90 L 953.10 227.40 L 957.80 225.40 L 962.10 223.00 L 966.30 220.30 L 970.20 217.20 L 973.80 213.80 L 977.10 210.10 L 980.10 206.10 L 982.80 201.90 L 985.10 197.40 L 986.90 192.60 L 988.30 187.70 L 989.40 182.50 L 989.90 177.20 L 990.00 172.00 L 989.60 167.00 L 988.70 162.00 L 987.40 157.20 L 985.70 152.50 L 983.60 148.00 L 981.10 143.70 L 978.30 139.60 L 975.10 135.80 L 971.60 132.30 L 967.70 129.00 L 963.60 126.10 L 959.20 123.60 L 954.50 121.50 L 949.50 119.80 Z" fill="url(#linearGradient-2)" fill-rule="nonzero" id="路径" node-id="53" stroke="none" target-height="163" target-width="272" target-x="718" target-y="68"></path><path d="M 1024.00 689.00 L 1023.70 694.30 L 1022.90 699.50 L 1021.60 704.70 L 1019.70 710.00 L 1017.20 715.30 L 1014.10 720.80 L 1010.00 726.60 L 1005.10 732.60 L 999.40 738.60 L 992.70 744.80 L 985.00 751.00 L 977.40 756.50 L 969.00 762.00 L 959.70 767.60 L 949.30 773.20 L 938.00 778.90 L 924.10 785.10 L 908.90 791.30 L 892.20 797.50 L 874.00 803.60 L 854.70 809.30 L 834.30 814.90 L 812.60 820.20 L 790.80 824.90 L 768.00 829.30 L 744.20 833.40 L 720.40 837.00 L 695.80 840.20 L 670.40 843.00 L 645.00 845.40 L 619.10 847.40 L 592.60 849.00 L 566.00 850.10 L 539.20 850.80 L 512.00 851.00 L 484.80 850.80 L 458.00 850.10 L 431.40 849.00 L 404.90 847.40 L 379.00 845.40 L 353.60 843.00 L 328.20 840.20 L 303.60 837.00 L 279.80 833.40 L 256.00 829.30 L 233.20 824.90 L 211.40 820.20 L 189.70 814.90 L 169.30 809.30 L 150.00 803.60 L 131.80 797.50 L 115.10 791.30 L 99.90 785.10 L 86.00 778.90 L 74.70 773.20 L 64.30 767.60 L 55.00 762.00 L 46.60 756.50 L 39.00 751.00 L 31.30 744.80 L 24.60 738.60 L 18.90 732.60 L 14.00 726.60 L 9.90 720.80 L 6.80 715.30 L 4.30 710.00 L 2.40 704.70 L 1.10 699.50 L 0.30 694.30 L 0.00 689.00 L 0.30 683.70 L 1.10 678.50 L 2.40 673.30 L 4.30 668.00 L 6.80 662.70 L 9.90 657.20 L 14.00 651.40 L 18.90 645.40 L 24.60 639.40 L 31.30 633.20 L 39.00 627.00 L 46.60 621.50 L 55.00 616.00 L 64.30 610.40 L 74.70 604.80 L 86.00 599.10 L 99.90 592.90 L 115.10 586.70 L 131.80 580.50 L 150.00 574.40 L 169.30 568.70 L 189.70 563.10 L 211.40 557.80 L 233.20 553.10 L 256.00 548.70 L 279.80 544.60 L 303.60 541.00 L 328.20 537.80 L 353.60 535.00 L 379.00 532.60 L 404.90 530.60 L 431.40 529.00 L 458.00 527.90 L 484.80 527.20 L 512.00 527.00 L 539.20 527.20 L 566.00 527.90 L 592.60 529.00 L 619.10 530.60 L 645.00 532.60 L 670.40 535.00 L 695.80 537.80 L 720.40 541.00 L 744.20 544.60 L 768.00 548.70 L 790.80 553.10 L 812.60 557.80 L 834.30 563.10 L 854.70 568.70 L 874.00 574.40 L 892.20 580.50 L 908.90 586.70 L 924.10 592.90 L 938.00 599.10 L 949.30 604.80 L 959.70 610.40 L 969.00 616.00 L 977.40 621.50 L 985.00 627.00 L 992.70 633.20 L 999.40 639.40 L 1005.10 645.40 L 1010.00 651.40 L 1014.10 657.20 L 1017.20 662.70 L 1019.70 668.00 L 1021.60 673.30 L 1022.90 678.50 L 1023.70 683.70 L 1024.00 689.00 Z" fill="url(#linearGradient-3)" fill-rule="nonzero" id="椭圆形" node-id="54" stroke="none" target-height="324" target-width="1024" target-x="0" target-y="527"></path><path d="M 906.00 554.00 L 901.10 617.00 L 865.00 606.70 Z" fill="#e4efff" fill-rule="nonzero" id="路径" node-id="55" stroke="none" target-height="63" target-width="41" target-x="865" target-y="554"></path><path d="M 904.80 554.00 L 935.00 609.50 L 900.00 617.00 Z" fill="#f3f8ff" fill-rule="nonzero" id="路径" node-id="56" stroke="none" target-height="63" target-width="35" target-x="900" target-y="554"></path><path d="M 573.00 673.50 L 572.10 675.00 L 568.10 676.80 L 562.80 678.20 L 554.70 679.50 L 534.80 681.30 L 510.50 682.00 L 486.20 681.30 L 466.30 679.50 L 458.20 678.20 L 452.90 676.80 L 450.40 675.80 L 448.20 674.20 L 448.00 673.50 L 448.20 672.80 L 448.90 672.00 L 452.90 670.20 L 458.20 668.80 L 466.30 667.50 L 486.20 665.70 L 510.50 665.00 L 534.80 665.70 L 554.70 667.50 L 562.80 668.80 L 568.10 670.20 L 572.10 672.00 L 573.00 673.50 Z" fill="url(#linearGradient-4)" fill-rule="nonzero" id="椭圆形" node-id="57" stroke="none" target-height="17" target-width="125" target-x="448" target-y="665"></path><g node-id="157"><path d="M 756.70 580.80 L 756.70 580.20 L 756.10 580.00 L 754.00 580.90 L 750.70 584.30 L 748.90 585.70 L 744.10 588.60 L 738.60 591.10 L 731.80 593.50 L 730.90 593.50 L 725.70 592.60 L 715.00 589.60 L 712.90 591.20 L 711.00 593.90 L 709.00 597.40 L 720.10 601.20 L 725.70 602.60 L 730.30 603.00 L 732.80 602.50 L 735.60 601.50 L 741.50 598.30 L 753.40 590.00 L 757.90 588.90 L 759.60 587.80 L 761.10 586.40 L 762.30 584.70 L 762.80 583.40 L 762.80 580.80 L 762.20 580.20 L 761.30 580.00 L 757.20 581.20 L 756.70 581.20 L 756.70 580.80 Z" fill="#fecca9" fill-rule="nonzero" group-id="2" id="路径" node-id="59" stroke="none" target-height="23" target-width="53.799988" target-x="709" target-y="580"></path><path d="M 621.10 580.80 L 621.10 580.20 L 621.60 580.00 L 623.90 580.90 L 627.20 584.30 L 629.10 585.70 L 634.00 588.60 L 639.60 591.10 L 646.60 593.50 L 647.60 593.50 L 652.80 592.60 L 663.80 589.60 L 666.00 591.20 L 668.00 593.90 L 670.00 597.40 L 658.60 601.20 L 652.90 602.60 L 648.10 603.00 L 645.60 602.50 L 642.70 601.50 L 636.60 598.30 L 624.50 590.00 L 620.10 589.10 L 616.30 587.00 L 614.40 584.70 L 614.00 583.40 L 614.20 582.00 L 614.80 581.30 L 615.80 581.00 L 620.50 581.40 L 621.10 581.30 L 621.10 580.80 Z" fill="#fecca9" fill-rule="nonzero" group-id="2" id="路径" node-id="60" stroke="none" target-height="23" target-width="56" target-x="614" target-y="580"></path><path d="M 683.40 559.80 L 679.90 561.30 L 679.00 564.90 L 679.10 568.30 L 679.50 570.50 L 680.10 572.10 L 682.50 576.60 L 682.80 578.60 L 682.70 585.00 L 692.10 585.00 L 692.50 575.60 L 695.30 570.90 L 696.90 566.20 L 696.90 564.30 L 695.60 562.50 L 694.30 561.50 L 690.60 559.60 L 686.80 559.00 L 683.40 559.80 Z" fill="#fecca9" fill-rule="nonzero" group-id="2" id="路径" node-id="61" stroke="none" target-height="26" target-width="17.900024" target-x="679" target-y="559"></path><path d="M 687.50 555.80 L 688.90 554.10 L 689.50 554.00 L 691.70 556.10 L 692.50 556.50 L 695.10 556.30 L 696.40 557.10 L 696.70 557.80 L 696.20 560.20 L 696.20 561.50 L 697.40 563.30 L 698.00 565.40 L 697.00 567.10 L 695.30 568.50 L 695.10 571.60 L 694.60 572.50 L 693.40 573.60 L 693.30 575.90 L 692.60 576.80 L 692.10 576.90 L 689.00 576.20 L 686.10 576.80 L 683.20 577.00 L 681.50 576.30 L 681.30 575.80 L 681.80 573.30 L 679.40 570.40 L 678.90 569.30 L 678.60 568.10 L 679.10 564.50 L 679.00 563.10 L 678.00 561.00 L 678.10 559.70 L 679.10 557.30 L 679.90 556.50 L 681.10 556.20 L 683.20 554.80 L 685.10 554.40 L 686.10 554.80 L 687.50 555.80 Z" fill="#003a8c" fill-rule="nonzero" group-id="2" id="路径" node-id="62" stroke="none" target-height="23" target-width="20" target-x="678" target-y="554"></path><path d="M 700.70 696.30 L 698.70 696.00 L 696.20 696.40 L 694.60 697.90 L 694.00 700.40 L 695.90 707.90 L 696.40 711.80 L 697.00 713.40 L 698.00 714.90 L 699.50 716.20 L 701.30 717.30 L 703.70 717.90 L 705.40 718.00 L 707.90 717.10 L 709.40 715.20 L 710.00 712.30 L 709.40 708.60 L 706.70 700.70 L 705.40 698.70 L 704.20 697.70 L 700.70 696.30 Z" fill="#003a8c" fill-rule="nonzero" group-id="2" id="路径" node-id="63" stroke="none" target-height="22" target-width="16" target-x="694" target-y="696"></path><path d="M 679.10 697.30 L 676.60 697.00 L 673.60 697.50 L 671.60 698.90 L 671.00 701.30 L 672.30 712.80 L 674.00 715.90 L 675.40 717.20 L 677.30 718.30 L 679.70 718.90 L 681.40 719.00 L 683.90 718.10 L 685.40 716.20 L 686.00 713.30 L 683.90 701.70 L 683.40 700.10 L 682.50 698.80 L 681.20 697.90 L 679.10 697.30 Z" fill="#003a8c" fill-rule="nonzero" group-id="2" id="路径" node-id="64" stroke="none" target-height="22" target-width="15" target-x="671" target-y="697"></path><path d="M 673.30 630.00 L 671.40 635.70 L 670.50 640.40 L 670.00 647.80 L 670.20 652.70 L 676.60 713.00 L 684.70 713.00 L 691.00 649.80 L 700.60 713.00 L 708.10 713.00 L 709.90 688.40 L 711.00 659.00 L 710.70 645.60 L 710.20 639.70 L 708.80 632.60 L 707.20 630.00 L 673.30 630.00 Z" fill="url(#linearGradient-5)" fill-rule="nonzero" group-id="2" id="路径" node-id="65" stroke="none" target-height="83" target-width="41" target-x="670" target-y="630"></path><path d="M 721.00 591.50 L 715.20 601.90 L 707.50 599.40 L 707.70 604.80 L 709.20 616.30 L 709.90 624.80 L 709.60 631.90 L 709.10 633.80 L 708.40 634.90 L 707.60 635.50 L 705.80 635.90 L 694.40 636.80 L 685.40 637.00 L 672.90 636.60 L 671.70 635.40 L 671.20 633.80 L 670.60 631.10 L 670.10 623.40 L 670.50 611.30 L 671.90 599.10 L 664.50 601.60 L 656.00 591.50 L 669.10 583.80 L 672.10 582.50 L 677.90 581.40 L 682.40 581.20 L 684.70 580.20 L 687.20 580.00 L 689.70 580.30 L 691.40 581.00 L 699.10 581.80 L 704.30 582.70 L 707.50 583.70 L 710.20 585.10 L 718.00 590.00 L 721.00 591.50 Z" fill="url(#linearGradient-6)" fill-rule="nonzero" group-id="2" id="路径" node-id="66" stroke="none" target-height="57" target-width="65" target-x="656" target-y="580"></path></g><path d="M 496.00 617.10 L 498.30 614.90 L 500.90 613.10 L 503.80 611.80 L 506.90 610.80 L 510.10 610.20 L 513.50 610.00 L 516.80 610.20 L 520.00 610.80 L 523.20 611.80 L 526.10 613.20 L 528.70 615.00 L 531.00 617.20 L 513.50 637.00 L 496.00 617.10 Z M 493.00 544.00 L 482.70 600.00 L 478.20 604.00 L 443.00 567.10 L 447.80 562.70 L 452.80 559.00 L 458.10 555.70 L 463.70 552.90 L 469.40 550.50 L 475.20 548.50 L 484.10 546.00 L 493.00 544.00 Z M 528.00 542.00 L 542.20 544.90 L 549.40 546.80 L 561.20 550.90 L 570.10 555.40 L 574.30 558.20 L 578.20 561.30 L 582.00 564.90 L 544.90 605.00 L 541.20 601.50 L 537.10 598.20 L 532.70 595.30 L 528.00 592.70 L 523.20 590.60 L 518.40 589.00 L 513.40 587.90 L 508.60 587.50 L 504.00 587.60 L 522.70 554.00 L 528.00 542.00 Z M 514.00 449.00 L 506.80 496.30 L 498.10 497.10 L 489.50 498.50 L 481.00 500.40 L 472.70 502.80 L 464.50 505.70 L 456.50 509.10 L 448.80 512.90 L 441.20 517.20 L 434.00 522.00 L 427.00 527.20 L 420.30 532.90 L 413.90 539.00 L 376.00 499.90 L 381.20 494.90 L 392.20 485.90 L 397.90 481.90 L 405.90 476.90 L 414.00 472.40 L 422.40 468.40 L 439.60 461.50 L 448.30 458.50 L 461.50 454.70 L 474.60 451.50 L 473.30 456.80 L 494.10 456.80 L 514.00 449.00 Z M 572.00 456.00 L 593.70 463.30 L 604.50 467.60 L 615.20 472.40 L 622.20 476.00 L 635.70 484.10 L 642.10 488.60 L 648.20 493.50 L 654.00 498.90 L 615.90 536.00 L 609.60 530.10 L 602.80 524.50 L 595.60 519.10 L 588.10 514.20 L 580.50 509.70 L 572.70 505.70 L 564.70 502.10 L 556.80 499.20 L 549.00 496.80 L 572.00 456.00 Z M 575.30 360.00 L 588.10 363.10 L 600.90 366.60 L 613.80 370.60 L 626.40 375.10 L 639.00 380.20 L 651.40 385.80 L 660.50 390.40 L 678.30 400.60 L 686.90 406.20 L 695.30 412.20 L 703.40 418.60 L 711.30 425.40 L 719.00 432.60 L 681.20 470.00 L 672.10 461.40 L 662.50 453.10 L 652.50 445.20 L 642.20 437.70 L 631.60 430.80 L 620.90 424.40 L 612.60 420.10 L 604.30 416.10 L 587.70 409.50 L 598.60 392.00 L 573.70 393.80 L 561.00 394.00 L 575.30 360.00 Z M 493.00 354.00 L 481.30 402.60 L 470.70 404.10 L 460.30 406.10 L 450.10 408.50 L 440.00 411.40 L 430.00 414.60 L 420.20 418.40 L 410.60 422.50 L 401.20 427.10 L 392.00 432.00 L 382.90 437.40 L 374.20 443.20 L 365.70 449.30 L 357.50 455.80 L 349.50 462.70 L 341.80 470.00 L 305.00 433.20 L 312.90 425.70 L 321.00 418.70 L 329.40 412.00 L 337.90 405.80 L 346.60 399.90 L 357.90 393.10 L 369.40 386.80 L 381.10 381.10 L 393.10 376.00 L 405.30 371.50 L 417.60 367.40 L 430.00 363.90 L 442.50 360.90 L 455.10 358.50 L 467.80 356.50 L 480.40 355.00 L 493.00 354.00 Z" fill="url(#linearGradient-7)" fill-rule="nonzero" id="形状结合" node-id="67" stroke="none" target-height="283" target-width="414" target-x="305" target-y="354"></path><path d="M 494.00 616.00 L 496.30 613.80 L 501.00 610.70 L 503.60 609.80 L 509.00 609.00 L 514.40 609.80 L 517.00 610.70 L 521.70 613.80 L 524.00 616.00 L 509.00 633.00 L 494.00 616.00 Z M 494.00 540.00 L 483.80 596.00 L 479.30 600.00 L 446.00 566.20 L 451.10 561.30 L 456.50 556.90 L 462.10 553.00 L 468.10 549.50 L 474.30 546.40 L 480.70 543.80 L 487.20 541.60 L 494.00 540.00 Z M 527.60 538.00 L 534.70 539.60 L 541.60 541.80 L 548.30 544.50 L 554.80 547.80 L 561.00 551.50 L 567.00 555.70 L 572.60 560.50 L 578.00 565.70 L 544.30 601.00 L 540.80 597.60 L 537.10 594.70 L 533.10 592.20 L 528.90 590.10 L 524.50 588.50 L 520.00 587.30 L 515.40 586.60 L 510.70 586.30 L 506.00 586.60 L 527.60 538.00 Z M 469.40 444.00 L 468.10 449.30 L 509.00 449.30 L 501.80 488.50 L 493.00 489.40 L 484.30 490.70 L 475.80 492.60 L 467.50 495.00 L 459.20 497.90 L 451.20 501.20 L 443.50 505.00 L 435.90 509.40 L 428.60 514.10 L 421.60 519.30 L 414.90 524.90 L 408.40 531.00 L 374.00 496.50 L 380.70 490.10 L 387.60 484.00 L 394.80 478.30 L 402.30 473.00 L 410.00 468.00 L 417.90 463.40 L 426.00 459.20 L 434.40 455.30 L 442.90 451.90 L 451.50 448.90 L 460.40 446.20 L 469.40 444.00 Z M 571.40 451.00 L 580.10 454.00 L 588.70 457.30 L 597.00 461.00 L 605.10 465.20 L 613.00 469.70 L 620.80 474.60 L 628.20 479.80 L 635.40 485.40 L 642.30 491.30 L 649.00 497.60 L 615.10 531.00 L 608.30 524.60 L 601.00 518.70 L 593.50 513.40 L 585.50 508.50 L 577.30 504.10 L 568.80 500.30 L 560.00 497.00 L 551.00 494.30 L 571.40 451.00 Z M 573.70 353.00 L 586.80 356.30 L 599.60 360.10 L 612.10 364.60 L 624.40 369.60 L 636.50 375.20 L 648.30 381.40 L 659.80 388.10 L 670.90 395.30 L 681.80 403.10 L 692.20 411.30 L 702.30 420.10 L 712.00 429.40 L 678.40 463.00 L 670.60 455.50 L 662.50 448.40 L 654.10 441.70 L 645.50 435.50 L 636.50 429.60 L 627.30 424.10 L 617.80 419.00 L 608.10 414.40 L 598.20 410.20 L 588.10 406.40 L 596.30 388.70 L 562.00 388.60 L 573.70 353.00 Z M 494.00 346.00 L 482.30 395.00 L 471.70 396.60 L 461.30 398.50 L 451.10 401.00 L 441.00 403.80 L 431.00 407.20 L 421.20 410.90 L 411.60 415.10 L 402.10 419.70 L 392.90 424.70 L 383.90 430.10 L 375.20 435.90 L 366.70 442.10 L 358.50 448.70 L 350.50 455.60 L 342.80 463.00 L 309.00 429.30 L 318.50 420.20 L 328.30 411.70 L 338.40 403.60 L 348.90 396.00 L 359.70 388.90 L 370.80 382.30 L 382.20 376.30 L 393.80 370.70 L 405.70 365.70 L 417.80 361.20 L 430.10 357.20 L 442.60 353.90 L 455.20 351.00 L 468.00 348.80 L 480.90 347.10 L 494.00 346.00 Z" fill="url(#linearGradient-8)" fill-rule="nonzero" id="形状结合" node-id="68" stroke="none" target-height="287" target-width="403" target-x="309" target-y="346"></path><path d="M 520.50 325.50 L 573.40 323.00 L 546.80 404.20 L 579.00 401.00 L 508.10 543.00 L 534.00 434.30 L 489.00 431.70 Z" fill="url(#linearGradient-9)" fill-rule="nonzero" id="路径" node-id="69" stroke="none" target-height="220" target-width="90" target-x="489" target-y="323"></path><path d="M 514.70 323.00 L 566.20 323.00 L 540.50 401.10 L 572.00 401.10 L 508.10 539.00 L 528.00 431.00 L 489.00 431.00 Z" fill="url(#linearGradient-10)" fill-rule="nonzero" id="路径" node-id="70" stroke="none" target-height="216" target-width="83" target-x="489" target-y="323"></path><path d="M 694.50 700.00 L 695.00 703.30 L 696.40 708.50 L 696.70 711.50 L 697.40 713.70 L 698.30 714.90 L 700.80 716.70 L 704.50 717.40 L 709.20 716.50 L 710.30 716.00 L 711.00 714.60 L 710.90 715.40 L 709.40 717.50 L 708.60 718.10 L 706.00 718.90 L 702.30 718.90 L 700.60 718.60 L 699.00 717.90 L 697.50 716.70 L 696.40 715.10 L 695.40 712.60 L 694.10 705.20 L 694.00 702.30 L 694.50 700.00 Z" fill="#001529" fill-rule="nonzero" id="路径" node-id="71" stroke="none" target-height="18.900024" target-width="17" target-x="694" target-y="700"></path><path d="M 672.40 699.00 L 671.60 700.20 L 671.40 703.10 L 672.40 709.60 L 674.00 714.00 L 675.30 715.70 L 676.40 716.50 L 679.80 717.40 L 682.50 717.10 L 684.30 716.40 L 685.30 715.80 L 686.00 714.40 L 685.80 715.70 L 685.00 717.00 L 682.80 718.40 L 679.70 719.00 L 677.80 718.80 L 676.20 718.20 L 674.90 717.30 L 673.80 716.00 L 671.90 711.50 L 671.10 706.10 L 671.30 701.10 L 671.80 699.70 L 672.40 699.00 Z" fill="#001529" fill-rule="nonzero" id="路径" node-id="72" stroke="none" target-height="20" target-width="14.900024" target-x="671.1" target-y="699"></path></svg>