<?xml version="1.0" standalone="no"?><!DOCTYPE svg PUBLIC "-//W3C//DTD SVG 1.1//EN" "http://www.w3.org/Graphics/SVG/1.1/DTD/svg11.dtd"><svg height="1080" node-id="1" sillyvg="true" template-height="1080" template-width="1080" version="1.1" viewBox="0 0 1080 1080" width="1080" xmlns="http://www.w3.org/2000/svg" xmlns:xlink="http://www.w3.org/1999/xlink"><defs node-id="20"></defs><path d="M 1039.00 912.40 L 1038.70 913.50 L 1037.80 914.70 L 1035.90 916.00 L 1032.70 917.60 L 1027.50 919.40 L 1019.80 921.40 L 1009.00 923.60 L 994.40 925.90 L 962.30 929.80 L 941.40 931.80 L 909.10 934.40 L 870.40 936.80 L 829.60 939.00 L 783.20 940.90 L 701.70 943.20 L 616.50 944.60 L 529.60 944.90 L 443.20 944.20 L 359.20 942.60 L 279.90 939.90 L 235.10 937.90 L 196.20 935.60 L 159.60 933.00 L 129.60 930.30 L 110.40 928.20 L 81.70 924.20 L 68.90 921.80 L 60.00 919.60 L 54.20 917.60 L 51.10 916.10 L 49.20 914.80 L 48.30 913.70 L 47.90 912.70 L 48.00 911.70 L 48.70 910.60 L 543.40 912.40 Z" fill="#f9f1cb" fill-rule="nonzero" id="path2214" node-id="7" stroke="none" target-height="34.30005" target-width="991.1" target-x="47.9" target-y="910.6"></path><path d="M 496.90 676.80 L 502.60 689.30 L 512.70 709.10 L 521.20 723.90 L 525.70 730.80 L 530.40 737.40 L 535.00 743.00 L 538.30 746.40 L 544.20 751.00 L 550.50 753.50 L 556.10 754.80 L 564.80 756.40 L 576.20 757.90 L 602.20 760.50 L 631.60 762.40 L 662.00 763.90 L 716.30 765.70 L 745.70 766.20 L 778.10 765.60 L 776.10 723.00 L 640.70 720.40 L 594.80 719.00 L 587.00 717.80 L 583.10 716.70 L 575.60 713.60 L 571.90 711.40 L 568.50 708.80 L 565.10 705.70 L 561.90 702.00 L 559.10 698.00 L 556.50 693.30 L 549.10 676.20 L 532.60 640.80 L 498.50 571.10 Z" fill="#f9f1cb" fill-rule="nonzero" id="path2663" node-id="8" stroke="none" target-height="195.10004" target-width="281.19998" target-x="496.9" target-y="571.1"></path><path d="M 588.10 475.60 L 595.80 484.30 L 599.70 488.20 L 609.80 497.00 L 615.70 501.30 L 624.10 506.50 L 628.60 508.80 L 633.20 510.70 L 637.90 512.20 L 642.70 513.30 L 647.60 513.90 L 652.50 513.90 L 657.50 513.20 L 697.10 503.90 L 706.30 502.10 L 714.80 501.00 L 720.40 500.70 L 725.70 500.80 L 730.60 501.40 L 737.60 503.40 L 744.00 506.80 L 748.40 510.20 L 752.40 514.00 L 756.10 518.00 L 759.40 522.40 L 762.30 527.10 L 764.70 531.90 L 766.70 537.00 L 768.40 542.40 L 761.50 562.00 L 712.60 562.00 L 712.00 557.00 L 711.30 554.90 L 710.20 552.50 L 708.80 550.20 L 706.80 548.10 L 703.30 545.90 L 696.70 543.40 L 693.20 541.50 L 687.10 536.70 L 678.00 527.60 L 675.40 526.60 L 673.70 526.60 L 671.10 527.20 L 668.10 528.30 L 662.40 531.70 L 657.70 535.50 L 654.30 539.40 L 653.60 539.80 L 651.40 539.60 L 646.00 537.80 L 644.00 537.60 L 642.00 538.10 L 640.00 539.10 L 636.10 542.30 L 630.70 548.40 L 629.00 548.80 L 627.50 548.60 L 625.90 548.00 L 623.80 546.60 L 621.70 544.60 L 619.00 541.30 L 616.50 537.10 L 613.40 531.00 L 588.10 475.60 Z" fill="#f9f1cb" fill-rule="nonzero" id="path2692" node-id="9" stroke="none" target-height="86.399994" target-width="180.30005" target-x="588.1" target-y="475.6"></path><path d="M 388.50 731.00 L 351.40 793.30 L 341.60 809.20 L 335.90 816.30 L 330.40 821.10 L 325.10 824.00 L 321.10 824.90 L 329.80 721.70 L 311.30 724.90 L 312.00 682.70 L 356.50 637.00 L 370.90 619.80 L 378.60 663.30 L 380.80 678.60 L 383.00 701.20 L 384.40 711.20 L 386.20 721.10 L 388.50 731.00 Z" fill="#f9f1cb" fill-rule="nonzero" id="path2696" node-id="10" stroke="none" target-height="205.10004" target-width="77.20001" target-x="311.3" target-y="619.8"></path><path d="M 538.50 882.60 L 539.50 886.90 L 540.70 889.80 L 542.30 892.60 L 544.70 895.70 L 546.70 897.40 L 549.10 899.00 L 552.00 900.40 L 555.10 901.30 L 558.90 901.80 L 563.50 901.90 L 589.50 901.30 L 613.60 901.60 L 624.30 901.90 L 632.80 902.80 L 636.60 902.70 L 640.90 902.10 L 646.30 900.40 L 649.00 899.00 L 651.30 897.30 L 653.50 895.10 L 655.40 892.30 L 657.30 887.50 L 657.90 884.30 L 659.00 870.00 L 660.00 860.30 L 663.70 835.70 L 664.20 830.00 L 664.10 826.30 L 663.60 823.50 L 662.80 821.50 L 661.70 820.10 L 659.20 818.40 L 656.90 817.90 L 654.40 817.90 L 649.70 818.70 L 644.60 820.70 L 645.00 832.40 L 644.90 843.60 L 644.10 855.40 L 643.20 861.00 L 642.00 865.60 L 640.90 868.40 L 639.70 870.50 L 638.40 871.90 L 636.00 873.40 L 632.90 874.80 L 628.90 876.00 L 622.70 877.30 L 615.40 878.30 L 571.60 881.60 L 538.50 882.60 Z" fill="#f9f1cb" fill-rule="nonzero" id="path2698" node-id="11" stroke="none" target-height="84.89996" target-width="125.70001" target-x="538.5" target-y="817.9"></path><path d="M 643.90 558.50 L 642.80 552.30 L 642.60 547.60 L 643.40 543.20 L 644.90 541.00 L 647.10 540.00 L 647.90 540.10 L 648.40 540.60 L 649.40 543.50 L 650.10 549.00 L 650.70 550.10 L 651.20 550.50 L 651.90 550.50 L 653.10 550.10 L 655.30 548.60 L 663.90 539.50 L 666.30 537.30 L 668.90 535.50 L 671.70 534.20 L 675.40 533.10 L 679.70 532.40 L 681.20 532.60 L 683.70 533.80 L 688.30 538.60 L 690.10 539.90 L 698.60 543.60 L 700.80 544.90 L 703.10 546.80 L 709.30 554.00 L 712.10 558.50 L 713.00 561.10 L 712.60 562.00 L 708.40 562.20 L 646.30 562.40 L 643.90 558.60 Z" fill="#9a702d" fill-rule="nonzero" id="path2767" node-id="12" stroke="none" target-height="30" target-width="70.400024" target-x="642.6" target-y="532.4"></path><path d="M 428.90 523.90 L 407.70 512.00 L 397.10 506.50 L 392.10 504.20 L 375.10 497.30 L 372.20 497.20 L 370.60 497.60 L 368.10 498.80 L 364.40 501.20 L 360.50 504.40 L 355.80 508.70 L 351.20 513.70 L 346.20 519.50 L 341.50 525.80 L 337.00 532.60 L 331.70 542.40 L 327.20 553.50 L 325.50 558.90 L 318.90 584.90 L 314.50 596.50 L 311.30 603.10 L 303.60 616.90 L 295.60 630.50 L 284.00 648.10 L 277.80 656.10 L 274.10 659.90 L 273.10 661.30 L 272.40 664.40 L 272.60 666.00 L 273.30 667.30 L 275.20 669.40 L 274.10 670.40 L 272.60 670.90 L 270.60 671.00 L 267.40 670.60 L 263.70 669.60 L 258.30 667.60 L 252.40 664.90 L 244.40 660.50 L 208.40 639.60 L 198.40 633.50 L 182.00 622.20 L 179.10 620.90 L 176.20 620.20 L 173.30 619.90 L 170.40 620.10 L 167.50 620.80 L 162.00 623.10 L 159.50 624.70 L 155.90 627.60 L 152.90 630.80 L 151.40 633.10 L 150.50 635.40 L 150.10 637.70 L 150.70 642.40 L 151.70 644.80 L 153.60 648.30 L 158.90 654.90 L 163.90 659.70 L 178.30 670.70 L 191.50 680.10 L 205.80 689.80 L 219.60 698.60 L 231.50 705.30 L 236.40 707.70 L 239.70 708.80 L 246.50 710.20 L 253.50 711.00 L 258.10 711.30 L 267.10 710.80 L 271.50 709.90 L 275.70 708.60 L 279.80 706.90 L 282.30 705.40 L 286.30 702.50 L 295.70 694.70 L 307.00 684.70 L 330.20 663.00 L 348.90 645.00 L 364.70 625.00 L 370.60 616.60 L 371.70 614.20 L 371.10 612.70 L 369.90 611.80 L 357.50 606.20 L 352.60 603.30 L 347.40 599.60 L 343.90 596.80 L 340.60 593.20 L 340.10 591.90 L 340.10 591.10 L 340.60 590.50 L 341.70 590.20 L 343.90 590.10 L 346.60 590.80 L 349.40 592.00 L 358.20 597.40 L 361.50 599.00 L 366.20 600.50 L 372.10 601.10 L 374.90 601.80 L 377.30 602.90 L 379.30 604.40 L 380.80 606.00 L 381.70 607.70 L 382.10 609.60 L 381.90 611.50 L 380.40 614.90 L 380.00 617.10 L 380.40 624.60 L 385.20 651.50 L 396.50 729.40 L 399.70 756.90 L 400.70 773.70 L 400.40 784.90 L 399.10 797.30 L 395.70 812.30 L 395.80 816.60 L 397.50 820.90 L 399.20 823.40 L 400.70 824.90 L 402.70 826.20 L 408.00 828.10 L 414.40 829.00 L 419.50 828.90 L 424.80 828.20 L 428.30 827.40 L 434.70 824.90 L 437.60 823.20 L 440.10 821.30 L 442.20 819.00 L 443.90 816.50 L 445.10 813.70 L 445.70 810.40 L 446.50 798.20 L 447.50 766.40 L 451.70 675.40 L 451.50 608.40 L 450.90 562.80 L 448.00 553.70 L 446.20 549.40 L 441.00 539.40 L 435.00 530.60 L 428.80 524.00 Z" fill="#72ccd1" fill-rule="nonzero" id="path2788" node-id="13" stroke="none" target-height="331.8" target-width="301.6" target-x="150.1" target-y="497.2"></path><path d="M 376.90 486.20 L 388.20 479.50 L 401.40 472.80 L 409.30 469.20 L 428.40 461.90 L 446.70 455.80 L 462.40 451.70 L 468.50 450.70 L 472.50 450.50 L 475.30 450.70 L 477.40 451.20 L 478.80 452.00 L 480.00 453.20 L 481.00 454.90 L 482.10 457.70 L 482.90 461.30 L 485.30 482.50 L 491.90 507.30 L 493.90 516.90 L 494.30 521.10 L 494.10 531.80 L 494.90 536.50 L 496.60 539.00 L 497.80 539.80 L 502.00 541.20 L 503.60 543.20 L 509.30 558.40 L 509.30 559.30 L 509.00 559.80 L 508.30 560.10 L 503.80 560.20 L 470.70 559.60 L 455.10 558.70 L 453.80 558.20 L 452.50 557.10 L 451.00 555.20 L 441.10 537.20 L 437.70 531.80 L 433.60 526.50 L 430.20 523.00 L 425.30 518.70 L 413.60 510.00 L 400.80 501.20 L 376.90 486.20 Z" fill="#c0a9d1" fill-rule="nonzero" id="path2790" node-id="14" stroke="none" target-height="109.70001" target-width="132.4" target-x="376.9" target-y="450.5"></path><path d="M 530.40 409.40 L 522.30 407.40 L 515.00 406.60 L 511.10 406.60 L 507.20 407.00 L 502.40 408.50 L 500.30 409.60 L 498.40 411.10 L 496.80 412.90 L 493.70 419.60 L 490.80 427.90 L 489.80 432.40 L 489.20 437.10 L 488.90 442.60 L 489.10 448.40 L 489.70 455.50 L 492.50 472.60 L 499.50 508.20 L 501.10 518.10 L 501.80 526.40 L 502.30 527.70 L 503.10 528.60 L 504.10 529.20 L 508.10 529.70 L 511.10 529.50 L 526.80 526.90 L 531.00 525.70 L 533.50 524.70 L 535.40 523.50 L 536.90 522.10 L 537.90 520.50 L 538.50 518.40 L 538.70 515.80 L 538.70 460.50 L 539.10 459.00 L 539.80 458.10 L 540.70 457.70 L 541.90 457.90 L 542.90 458.70 L 543.90 460.20 L 544.60 462.10 L 545.00 465.00 L 544.50 471.50 L 543.30 477.50 L 541.50 483.80 L 546.30 480.60 L 550.00 479.40 L 551.10 479.50 L 552.00 480.00 L 552.60 480.90 L 553.00 482.00 L 552.60 486.80 L 551.50 490.80 L 548.00 500.20 L 547.70 501.90 L 547.70 507.30 L 549.70 528.70 L 549.80 533.20 L 549.40 537.40 L 551.30 539.50 L 557.50 542.70 L 565.90 545.70 L 570.40 546.80 L 579.00 548.00 L 582.30 548.00 L 585.60 547.30 L 589.70 545.80 L 598.20 541.70 L 606.20 537.00 L 614.50 531.50 L 608.40 517.00 L 601.30 501.60 L 591.80 483.40 L 586.40 473.80 L 576.20 457.70 L 567.40 446.10 L 560.50 438.00 L 554.00 431.00 L 542.10 419.40 L 530.40 409.30 Z" fill="#c0a9d1" fill-rule="nonzero" id="path2792" node-id="15" stroke="none" target-height="141.4" target-width="125.600006" target-x="488.9" target-y="406.6"></path><path d="M 394.30 465.40 L 394.60 456.50 L 396.00 447.80 L 397.20 443.10 L 400.40 435.20 L 404.20 429.50 L 408.10 425.30 L 411.60 422.20 L 414.80 420.00 L 418.30 418.30 L 421.50 417.40 L 424.50 417.10 L 427.40 417.40 L 430.10 418.20 L 432.60 419.50 L 437.80 423.80 L 444.00 429.80 L 456.20 442.90 L 444.00 446.00 L 431.80 449.50 L 418.10 454.00 L 405.00 459.40 L 399.00 462.40 L 394.30 465.40 Z" fill="#c0a9d1" fill-rule="nonzero" id="path2794" node-id="16" stroke="none" target-height="48.299988" target-width="61.900024" target-x="394.3" target-y="417.1"></path><path d="M 508.30 395.70 L 500.70 396.20 L 494.50 397.80 L 492.40 398.90 L 489.90 401.00 L 485.30 406.20 L 481.80 412.00 L 479.90 417.50 L 478.40 423.10 L 477.50 428.80 L 477.00 434.60 L 477.00 439.40 L 465.80 439.50 L 460.60 440.00 L 459.60 439.70 L 457.20 437.70 L 449.70 429.20 L 445.80 425.30 L 437.70 418.60 L 429.70 413.60 L 425.50 411.70 L 421.80 410.50 L 418.30 409.80 L 415.20 409.60 L 409.20 410.30 L 406.30 411.20 L 402.60 412.90 L 399.20 415.20 L 396.00 418.00 L 393.20 421.20 L 390.90 424.80 L 389.00 428.90 L 385.80 438.80 L 384.10 447.80 L 383.40 463.90 L 383.10 467.40 L 382.20 470.50 L 380.80 471.10 L 376.00 469.50 L 371.20 468.80 L 368.80 469.00 L 367.30 469.30 L 366.00 470.00 L 363.90 472.70 L 363.00 476.30 L 363.60 480.20 L 365.90 485.00 L 354.70 492.90 L 350.20 496.80 L 345.60 501.40 L 337.00 511.40 L 328.90 522.90 L 321.80 535.30 L 315.90 548.10 L 311.90 560.00 L 304.70 586.40 L 300.40 597.20 L 296.00 605.80 L 280.70 632.00 L 268.90 651.60 L 267.20 654.00 L 265.30 656.10 L 264.10 656.20 L 232.70 640.80 L 221.80 634.90 L 212.50 629.50 L 199.80 620.70 L 195.00 616.80 L 188.20 610.50 L 183.10 606.90 L 177.70 604.90 L 172.50 604.10 L 170.20 603.20 L 169.50 602.20 L 166.40 594.40 L 164.80 591.50 L 164.70 589.70 L 165.40 586.50 L 165.20 584.00 L 164.40 581.50 L 163.20 579.10 L 161.70 576.90 L 159.90 575.20 L 157.10 573.50 L 153.70 572.00 L 149.40 570.60 L 140.30 568.70 L 135.10 568.20 L 124.60 568.00 L 112.80 569.20 L 99.10 571.70 L 92.40 573.30 L 79.90 576.90 L 69.70 580.90 L 65.70 583.00 L 63.10 584.80 L 61.00 586.90 L 58.80 590.30 L 58.40 592.10 L 58.50 593.90 L 59.90 599.00 L 60.10 604.20 L 60.60 606.10 L 61.60 607.90 L 62.90 609.40 L 64.80 610.90 L 68.70 613.10 L 71.90 614.00 L 74.50 614.40 L 111.10 616.10 L 121.40 616.90 L 127.80 617.70 L 131.00 618.40 L 132.40 619.10 L 142.80 627.40 L 140.50 635.00 L 140.10 637.20 L 140.40 640.80 L 141.10 642.60 L 142.30 644.30 L 144.70 646.70 L 158.70 657.60 L 171.50 668.60 L 189.60 682.40 L 199.00 689.00 L 217.60 700.60 L 226.50 705.60 L 239.40 711.70 L 247.00 714.20 L 251.70 715.00 L 256.80 715.20 L 262.10 714.80 L 267.50 713.90 L 272.80 712.40 L 278.10 710.50 L 283.20 707.90 L 289.10 704.30 L 297.40 698.50 L 306.30 691.50 L 314.90 684.20 L 323.20 676.60 L 337.20 662.70 L 351.10 647.10 L 362.70 633.20 L 368.00 626.20 L 369.00 625.30 L 369.80 625.30 L 371.10 630.10 L 372.60 639.10 L 378.70 680.60 L 383.90 718.60 L 388.40 759.60 L 388.90 767.40 L 388.90 775.40 L 388.50 783.90 L 387.70 792.60 L 384.60 816.80 L 384.40 822.10 L 384.60 825.60 L 385.60 829.20 L 387.00 831.00 L 397.00 837.00 L 388.40 855.40 L 386.60 859.90 L 385.70 863.80 L 385.30 868.20 L 385.20 872.70 L 385.60 877.20 L 386.40 881.60 L 387.80 886.50 L 389.60 891.40 L 396.00 906.50 L 391.00 906.90 L 377.40 907.20 L 39.40 907.80 L 35.30 908.70 L 34.20 909.40 L 33.90 910.30 L 34.20 911.10 L 36.70 912.30 L 39.40 912.80 L 164.40 913.50 L 735.20 913.90 L 925.60 913.70 L 999.10 913.50 L 1040.40 912.80 L 1043.30 912.30 L 1045.20 911.50 L 1045.90 910.90 L 1046.10 910.30 L 1045.90 909.60 L 1045.20 909.00 L 1043.30 908.20 L 1040.40 907.80 L 942.00 907.30 L 898.00 906.50 L 826.80 907.00 L 798.50 906.70 L 451.70 907.30 L 450.40 902.90 L 447.70 897.20 L 445.70 894.50 L 444.00 892.90 L 442.20 891.70 L 438.70 890.20 L 437.40 888.90 L 436.20 886.60 L 435.30 884.10 L 433.70 876.60 L 433.00 870.10 L 431.10 841.10 L 432.00 839.40 L 436.50 836.60 L 438.90 834.70 L 443.30 830.10 L 445.40 827.50 L 448.60 822.30 L 449.50 820.00 L 450.70 814.20 L 450.00 793.20 L 450.10 777.00 L 453.30 705.40 L 454.20 667.00 L 454.30 560.00 L 454.80 557.80 L 455.80 556.60 L 458.70 555.50 L 462.40 555.30 L 463.30 552.10 L 464.50 544.60 L 464.90 535.40 L 464.50 526.00 L 463.40 517.70 L 461.40 511.50 L 458.40 506.40 L 455.90 504.20 L 454.50 504.40 L 453.90 505.10 L 453.80 506.30 L 454.10 507.80 L 455.90 513.60 L 457.50 521.20 L 458.50 529.70 L 458.80 537.60 L 458.20 545.00 L 456.80 551.70 L 455.30 555.10 L 454.20 555.90 L 452.60 554.20 L 448.40 545.50 L 442.30 535.20 L 434.50 525.00 L 425.80 515.90 L 416.10 508.00 L 410.50 504.00 L 399.00 496.60 L 387.70 490.30 L 375.10 484.70 L 373.00 483.30 L 371.40 481.90 L 370.00 480.20 L 369.30 478.40 L 369.00 476.70 L 369.20 475.40 L 369.60 474.80 L 372.50 474.40 L 375.50 474.60 L 379.20 475.70 L 380.40 475.70 L 384.10 474.70 L 416.30 459.60 L 426.70 455.10 L 438.80 450.90 L 450.50 448.40 L 459.60 447.00 L 468.20 446.00 L 476.70 445.50 L 477.00 445.60 L 478.70 455.80 L 482.70 482.70 L 485.30 497.00 L 490.10 517.80 L 490.60 522.90 L 490.10 531.90 L 490.50 536.60 L 491.10 538.00 L 492.00 539.30 L 493.70 540.80 L 497.80 543.30 L 502.20 544.60 L 502.70 545.50 L 503.40 550.70 L 505.90 558.90 L 512.40 559.00 L 510.60 554.80 L 509.40 549.70 L 509.10 545.30 L 509.60 542.10 L 510.00 541.30 L 510.90 540.60 L 514.50 539.60 L 518.40 538.90 L 522.40 538.70 L 531.20 539.60 L 534.60 540.80 L 541.90 545.70 L 547.90 549.10 L 567.00 559.00 L 592.50 559.30 L 604.80 553.90 L 610.50 550.60 L 614.80 547.00 L 615.50 546.80 L 616.00 547.00 L 616.50 548.20 L 616.80 549.80 L 616.90 560.80 L 622.90 560.80 L 622.90 547.20 L 639.90 560.60 L 650.70 561.50 L 638.30 552.20 L 634.50 548.60 L 634.50 547.70 L 636.30 544.20 L 639.20 541.00 L 640.40 540.30 L 644.10 540.20 L 647.80 541.50 L 648.80 542.20 L 649.30 543.10 L 649.70 546.80 L 650.10 547.60 L 650.70 547.90 L 651.50 547.60 L 652.50 546.70 L 657.90 539.20 L 662.20 534.60 L 664.40 532.80 L 666.00 531.70 L 668.30 530.90 L 672.90 530.30 L 675.80 530.60 L 677.00 531.00 L 681.30 534.30 L 684.80 538.00 L 687.70 542.60 L 690.10 544.80 L 693.00 546.00 L 696.60 546.60 L 699.10 547.50 L 703.80 550.60 L 705.90 552.60 L 707.40 554.50 L 710.10 560.30 L 710.60 562.00 L 716.60 561.50 L 712.30 551.10 L 709.60 547.40 L 707.80 545.80 L 703.30 543.30 L 695.50 540.80 L 693.10 539.40 L 692.00 538.30 L 687.10 531.50 L 685.00 529.10 L 682.60 527.10 L 680.00 525.80 L 677.20 524.90 L 673.90 524.50 L 670.40 524.40 L 667.40 524.80 L 664.70 525.80 L 662.00 527.30 L 659.40 529.40 L 652.00 537.50 L 647.20 534.70 L 645.00 534.10 L 642.50 534.00 L 640.10 534.30 L 637.80 535.00 L 635.50 536.10 L 633.60 537.50 L 632.00 539.30 L 629.10 544.20 L 628.20 544.10 L 627.30 543.40 L 624.00 539.20 L 619.30 531.20 L 608.70 508.30 L 604.40 500.20 L 591.30 478.40 L 583.20 464.40 L 575.40 451.60 L 559.90 430.10 L 554.40 423.60 L 548.90 417.80 L 543.30 412.40 L 534.30 405.40 L 527.80 401.50 L 519.00 397.70 L 514.50 396.30 L 508.30 395.70 Z M 506.30 401.70 L 510.50 401.90 L 514.80 402.70 L 519.30 404.20 L 523.90 406.30 L 528.10 408.90 L 532.70 412.10 L 537.60 416.30 L 543.00 421.30 L 550.10 428.70 L 556.60 436.20 L 563.40 445.50 L 571.70 458.20 L 597.50 500.20 L 601.90 508.40 L 611.00 528.30 L 615.90 538.20 L 609.80 543.30 L 606.60 545.30 L 599.50 548.90 L 595.70 550.40 L 588.00 552.70 L 584.60 553.30 L 574.10 554.30 L 568.20 552.60 L 558.40 548.20 L 537.90 537.30 L 542.30 527.90 L 543.30 523.60 L 543.30 518.50 L 541.00 499.50 L 541.50 495.00 L 543.20 491.40 L 546.50 486.30 L 548.30 483.00 L 550.80 476.80 L 551.30 474.10 L 551.20 472.70 L 550.70 471.80 L 550.10 471.40 L 549.30 471.50 L 548.30 472.30 L 546.80 474.10 L 541.40 483.80 L 540.50 458.70 L 539.90 454.10 L 539.40 453.10 L 538.90 452.90 L 538.30 453.10 L 537.60 454.00 L 536.70 458.10 L 536.00 466.20 L 535.40 479.40 L 535.20 495.40 L 535.40 501.80 L 537.20 516.30 L 537.60 522.30 L 537.10 526.10 L 535.70 529.40 L 533.40 533.90 L 520.00 533.50 L 512.90 534.30 L 509.80 535.20 L 507.60 536.30 L 504.80 538.50 L 503.60 538.90 L 502.20 539.00 L 500.90 538.60 L 499.30 537.90 L 496.90 535.80 L 496.20 534.10 L 496.10 532.50 L 496.60 525.00 L 496.40 519.90 L 491.00 494.70 L 486.10 467.30 L 483.30 443.80 L 483.30 433.80 L 484.50 425.00 L 485.70 420.20 L 487.00 416.10 L 488.70 412.20 L 490.70 409.00 L 494.30 404.90 L 496.80 403.20 L 500.10 402.30 L 506.30 401.70 Z M 414.50 416.50 L 418.10 416.80 L 421.50 417.40 L 424.90 418.50 L 429.80 421.10 L 438.30 427.80 L 444.30 433.20 L 449.00 437.90 L 450.90 440.50 L 450.10 441.20 L 448.20 441.90 L 436.40 444.90 L 429.30 447.40 L 419.50 451.50 L 388.60 466.40 L 390.00 450.60 L 391.30 443.70 L 393.10 437.20 L 395.10 431.50 L 396.80 427.90 L 400.30 422.70 L 402.10 420.80 L 404.20 419.30 L 409.00 417.30 L 414.50 416.50 Z M 371.80 488.80 L 374.20 489.40 L 379.50 491.90 L 386.80 496.00 L 403.40 506.20 L 409.90 511.00 L 417.40 517.10 L 424.50 523.40 L 431.50 530.60 L 431.90 531.40 L 428.30 538.00 L 427.20 540.70 L 426.30 543.80 L 425.50 548.70 L 425.30 554.10 L 425.60 559.60 L 427.20 568.60 L 429.60 574.90 L 431.50 578.20 L 433.80 581.30 L 436.50 584.10 L 439.40 586.50 L 442.40 588.40 L 449.20 590.80 L 448.10 668.80 L 447.30 693.50 L 445.00 739.30 L 444.20 807.70 L 443.80 814.70 L 443.20 818.50 L 442.20 820.90 L 440.60 823.50 L 435.90 828.60 L 430.70 832.30 L 428.30 833.20 L 424.40 834.00 L 419.90 834.40 L 415.40 834.40 L 406.00 833.10 L 401.50 831.90 L 397.30 830.40 L 393.60 828.60 L 391.20 826.50 L 390.60 825.00 L 390.30 820.00 L 393.70 793.50 L 394.50 784.20 L 394.90 775.60 L 394.80 766.90 L 394.40 758.60 L 383.00 668.20 L 377.80 634.20 L 374.70 617.70 L 374.40 614.40 L 375.70 610.60 L 374.80 609.00 L 373.90 608.50 L 369.50 607.90 L 365.40 606.80 L 356.50 602.80 L 347.60 597.30 L 343.60 594.30 L 338.20 589.40 L 336.70 588.50 L 335.70 588.40 L 334.90 588.80 L 334.30 589.80 L 334.20 590.90 L 334.60 592.40 L 335.70 594.30 L 338.00 597.00 L 341.50 600.20 L 345.50 603.30 L 350.20 606.30 L 355.20 609.10 L 365.40 613.60 L 367.20 614.70 L 367.70 615.20 L 367.50 616.20 L 365.80 619.10 L 359.80 626.90 L 350.70 637.60 L 339.80 649.80 L 328.10 662.30 L 316.80 673.80 L 301.60 687.70 L 294.80 693.30 L 288.80 697.60 L 282.80 701.30 L 277.30 704.10 L 271.70 706.30 L 261.90 708.80 L 258.30 709.20 L 254.80 709.20 L 251.30 708.70 L 247.60 707.80 L 243.20 706.10 L 232.30 700.90 L 218.10 693.10 L 202.70 683.50 L 179.50 667.50 L 165.90 656.90 L 145.50 639.70 L 147.30 631.70 L 148.90 628.10 L 154.00 621.80 L 157.30 618.60 L 160.60 615.90 L 164.10 613.50 L 167.30 611.80 L 171.30 610.50 L 172.90 610.30 L 176.20 610.60 L 179.30 611.60 L 182.20 613.10 L 184.90 615.20 L 192.70 622.60 L 197.80 626.60 L 209.20 634.30 L 216.30 638.60 L 227.50 644.80 L 259.70 661.10 L 276.70 670.70 L 278.60 671.40 L 279.30 671.30 L 279.70 670.00 L 279.50 669.10 L 277.30 665.90 L 275.60 664.10 L 269.00 659.00 L 278.00 646.70 L 287.10 632.80 L 299.30 611.90 L 303.90 602.80 L 307.10 595.40 L 308.90 590.50 L 312.90 574.50 L 316.10 564.40 L 320.20 553.50 L 324.50 543.40 L 328.10 536.20 L 332.30 529.00 L 337.00 521.90 L 342.00 515.20 L 347.30 508.80 L 352.70 503.00 L 358.40 497.70 L 363.90 493.20 L 369.00 489.70 L 370.60 488.90 L 371.70 488.70 Z M 436.30 538.40 L 436.90 538.70 L 438.30 540.20 L 441.30 544.90 L 445.80 554.20 L 447.60 559.40 L 448.50 564.20 L 448.90 574.30 L 448.60 582.90 L 448.20 584.50 L 447.70 585.10 L 447.10 585.20 L 445.80 584.60 L 443.40 582.50 L 440.80 579.90 L 438.50 577.00 L 436.60 573.80 L 434.90 570.30 L 432.70 563.00 L 431.90 554.90 L 432.30 549.30 L 434.10 541.60 L 434.80 539.90 L 435.60 538.70 L 436.30 538.40 Z M 125.60 574.60 L 132.90 574.70 L 139.50 575.40 L 147.50 577.10 L 153.70 579.60 L 155.80 581.10 L 157.30 582.60 L 158.60 584.60 L 158.90 585.80 L 156.80 585.40 L 147.60 582.80 L 141.40 582.00 L 132.40 581.60 L 123.60 581.60 L 115.10 582.10 L 106.70 583.10 L 98.20 584.70 L 89.80 586.90 L 80.90 589.70 L 66.80 594.70 L 65.70 594.90 L 65.10 594.60 L 64.60 594.00 L 64.80 591.80 L 65.50 590.50 L 66.90 589.20 L 70.00 587.40 L 73.70 585.70 L 83.90 582.10 L 96.20 578.80 L 109.20 576.20 L 115.40 575.30 L 125.60 574.50 Z M 128.40 587.90 L 141.90 588.40 L 150.00 589.80 L 152.90 590.80 L 157.10 593.20 L 160.20 596.70 L 161.40 598.90 L 163.50 605.10 L 163.80 606.70 L 159.00 609.90 L 154.50 613.50 L 145.60 622.30 L 139.20 617.60 L 134.20 613.30 L 133.70 611.60 L 134.60 608.20 L 134.80 602.90 L 133.60 598.30 L 132.70 596.70 L 131.10 595.60 L 129.80 595.80 L 129.00 597.30 L 128.30 608.30 L 128.00 610.30 L 127.80 610.90 L 127.30 611.00 L 123.40 610.90 L 121.50 610.40 L 120.70 610.00 L 120.30 609.40 L 121.40 605.60 L 121.70 602.70 L 121.50 600.80 L 120.40 597.80 L 119.20 596.40 L 118.40 596.00 L 117.70 596.20 L 117.20 596.90 L 115.70 604.00 L 114.50 606.90 L 113.30 608.20 L 110.60 608.80 L 92.20 608.70 L 73.90 607.70 L 70.80 607.30 L 68.20 606.60 L 66.90 605.80 L 66.10 604.70 L 66.00 602.60 L 67.20 601.10 L 72.20 598.70 L 82.40 595.50 L 96.00 591.90 L 101.80 590.50 L 112.10 588.90 L 117.20 588.40 L 128.40 588.00 Z M 402.40 839.20 L 406.50 840.10 L 410.90 840.50 L 425.90 840.80 L 426.10 864.00 L 425.80 869.60 L 425.00 873.20 L 422.10 881.40 L 421.80 883.70 L 422.00 884.90 L 422.50 885.40 L 423.20 885.40 L 424.40 884.90 L 428.60 881.30 L 431.40 889.80 L 435.40 898.00 L 436.30 899.30 L 437.30 900.00 L 438.20 899.70 L 439.10 898.70 L 439.90 898.40 L 440.40 898.60 L 442.80 901.70 L 444.30 904.40 L 444.90 906.30 L 442.70 907.00 L 429.90 907.50 L 416.90 906.90 L 414.50 906.20 L 410.60 894.40 L 406.20 882.80 L 398.60 865.10 L 396.10 857.80 L 396.00 856.80 L 396.40 854.30 L 398.70 846.30 L 400.90 840.60 L 401.90 839.40 L 402.50 839.30 Z M 391.40 864.80 L 396.60 875.10 L 399.80 882.30 L 409.60 906.70 L 409.00 907.10 L 407.00 907.30 L 405.10 907.10 L 404.40 906.70 L 402.80 904.80 L 398.90 897.10 L 396.40 891.50 L 392.80 881.00 L 391.70 876.50 L 391.10 872.10 L 391.10 868.70 Z" fill="#483613" fill-rule="nonzero" id="path2625" node-id="17" stroke="none" target-height="518.2" target-width="1012.19995" target-x="33.9" target-y="395.7"></path><path d="M 587.10 135.10 L 581.50 135.30 L 575.70 136.20 L 569.60 137.70 L 563.70 139.70 L 557.70 142.20 L 551.70 145.40 L 546.00 149.00 L 540.50 153.10 L 535.20 157.70 L 530.70 162.20 L 526.90 166.60 L 523.60 171.10 L 520.70 175.70 L 518.30 180.30 L 516.30 185.10 L 514.70 190.00 L 513.60 195.00 L 512.90 200.00 L 512.90 209.40 L 513.80 216.80 L 514.40 219.40 L 515.60 222.10 L 517.10 224.50 L 518.80 226.60 L 520.80 228.30 L 523.10 229.70 L 528.30 231.60 L 534.20 232.00 L 540.50 230.90 L 543.90 229.70 L 547.30 227.90 L 548.80 226.80 L 552.10 223.30 L 563.30 207.90 L 569.30 200.60 L 572.90 197.50 L 576.90 195.10 L 579.80 194.30 L 580.60 194.60 L 578.90 198.70 L 561.90 233.00 L 554.10 249.70 L 548.60 263.90 L 546.50 270.70 L 542.80 285.40 L 541.80 290.80 L 540.60 303.50 L 540.40 316.20 L 541.40 326.60 L 542.20 330.00 L 543.50 333.00 L 545.30 336.00 L 549.70 341.50 L 552.30 343.80 L 556.20 346.10 L 559.10 346.90 L 565.70 347.00 L 569.50 346.60 L 572.60 345.90 L 575.40 344.90 L 577.90 343.40 L 580.10 341.60 L 583.90 337.00 L 585.10 334.60 L 585.90 331.80 L 586.40 327.90 L 586.90 308.70 L 588.10 301.50 L 589.20 298.00 L 590.80 294.20 L 595.50 285.50 L 609.00 263.80 L 621.00 242.40 L 625.00 234.10 L 627.00 228.90 L 628.70 223.20 L 630.10 217.00 L 631.10 210.80 L 631.70 204.10 L 631.90 197.10 L 631.30 184.50 L 630.40 179.10 L 629.00 174.20 L 627.10 169.40 L 624.40 164.20 L 616.80 152.40 L 611.80 145.80 L 609.80 143.50 L 606.30 140.40 L 600.30 137.40 L 596.00 136.10 L 591.50 135.30 L 587.00 135.10 Z M 586.60 141.40 L 590.20 141.50 L 597.10 142.90 L 600.20 144.20 L 602.80 145.80 L 605.10 147.70 L 607.10 149.90 L 608.70 152.50 L 609.90 155.20 L 611.40 161.80 L 611.70 165.80 L 611.20 174.70 L 609.40 184.10 L 607.80 189.70 L 603.30 202.60 L 596.60 219.20 L 580.90 255.10 L 576.00 267.60 L 572.20 278.60 L 569.60 287.00 L 566.40 301.60 L 565.50 307.80 L 565.00 314.20 L 565.10 320.10 L 565.60 325.50 L 567.20 333.20 L 567.70 337.80 L 567.60 338.80 L 566.40 339.90 L 563.40 340.30 L 558.90 339.20 L 556.80 338.10 L 554.40 336.20 L 552.30 334.00 L 550.60 331.40 L 549.30 328.70 L 548.30 325.30 L 547.50 321.30 L 547.00 312.30 L 547.70 299.60 L 548.60 293.00 L 551.30 279.30 L 553.30 272.20 L 558.30 257.40 L 565.20 241.70 L 584.50 203.10 L 588.00 194.20 L 589.10 190.50 L 589.80 184.00 L 589.10 177.20 L 588.30 174.30 L 587.10 172.00 L 585.60 170.00 L 583.90 168.40 L 581.80 167.10 L 579.60 166.30 L 577.00 165.80 L 574.00 165.80 L 570.60 166.30 L 563.40 168.50 L 560.40 170.00 L 554.60 174.30 L 548.20 181.20 L 545.20 185.60 L 542.60 190.30 L 540.30 195.80 L 538.30 201.80 L 534.50 216.10 L 532.80 220.60 L 531.40 223.10 L 530.10 224.50 L 528.80 225.10 L 527.40 225.20 L 525.70 224.70 L 523.60 223.30 L 522.10 221.70 L 520.70 219.10 L 518.70 212.60 L 518.10 208.80 L 517.90 204.70 L 518.20 200.90 L 519.10 196.20 L 520.50 191.30 L 524.50 181.50 L 526.90 177.10 L 530.30 172.20 L 534.10 167.50 L 538.50 163.00 L 543.30 158.90 L 548.40 155.10 L 553.70 151.70 L 559.30 148.70 L 564.90 146.20 L 570.50 144.20 L 576.20 142.60 L 581.60 141.70 L 586.70 141.40 Z M 619.60 169.40 L 620.70 170.90 L 622.00 173.90 L 623.30 177.60 L 624.00 181.50 L 624.30 187.30 L 624.20 207.10 L 623.70 214.40 L 622.50 220.40 L 620.80 225.50 L 617.70 232.90 L 613.90 240.70 L 603.30 259.80 L 591.30 279.60 L 583.60 293.90 L 581.90 298.10 L 580.90 302.20 L 580.40 307.80 L 579.60 325.20 L 579.20 330.20 L 578.40 332.90 L 575.90 335.80 L 575.00 336.00 L 574.10 332.20 L 571.40 326.10 L 571.00 322.40 L 572.00 308.70 L 573.40 300.70 L 575.30 292.50 L 578.00 283.20 L 585.50 262.30 L 602.40 222.50 L 611.00 201.00 L 613.70 192.90 L 615.80 185.30 L 618.40 171.70 L 618.90 170.10 L 619.60 169.40 Z M 573.90 172.40 L 578.90 172.80 L 580.50 173.90 L 581.30 175.20 L 582.70 179.60 L 582.90 188.30 L 576.70 188.50 L 574.30 189.20 L 571.70 190.50 L 569.40 192.10 L 563.80 197.40 L 559.50 202.60 L 547.50 219.00 L 544.70 221.90 L 542.80 223.30 L 538.40 225.30 L 538.10 224.60 L 541.30 214.90 L 544.20 203.10 L 545.90 198.20 L 549.90 189.60 L 552.40 185.60 L 555.10 182.20 L 557.90 179.30 L 560.80 177.00 L 564.00 174.90 L 567.20 173.50 L 570.50 172.70 L 573.90 172.40 Z M 565.80 359.60 L 562.90 360.00 L 558.80 361.30 L 555.30 362.60 L 550.50 365.20 L 548.90 367.00 L 547.60 369.10 L 546.10 374.00 L 545.90 376.60 L 546.60 382.00 L 548.50 387.00 L 550.00 389.20 L 551.80 391.10 L 553.80 392.70 L 555.90 393.60 L 558.60 394.10 L 561.60 394.30 L 564.60 394.00 L 567.40 393.40 L 569.60 392.40 L 571.70 390.80 L 573.60 388.90 L 576.70 383.90 L 578.50 378.30 L 578.90 375.40 L 578.90 372.60 L 578.50 370.00 L 577.80 368.00 L 576.50 365.90 L 573.00 362.40 L 571.00 361.10 L 568.90 360.20 L 565.70 359.60 Z M 565.20 366.50 L 567.10 366.90 L 569.30 368.40 L 570.60 369.80 L 571.50 371.50 L 571.90 373.60 L 572.00 375.70 L 570.80 380.30 L 569.70 382.40 L 568.20 384.40 L 566.30 386.20 L 564.40 387.40 L 562.50 388.00 L 560.70 388.10 L 558.90 387.70 L 557.30 386.90 L 555.60 385.50 L 554.30 383.80 L 553.20 381.70 L 552.40 379.10 L 552.10 376.80 L 552.40 374.70 L 553.20 372.90 L 554.50 371.30 L 556.30 369.80 L 562.60 367.00 L 565.10 366.50 Z M 633.90 408.90 L 600.80 409.00 L 593.10 409.30 L 589.00 409.80 L 586.70 410.70 L 584.30 412.10 L 581.80 414.20 L 576.70 420.30 L 574.00 424.40 L 566.10 438.70 L 569.80 443.90 L 581.40 423.90 L 583.30 421.10 L 585.10 419.20 L 587.00 417.70 L 589.20 416.70 L 595.00 415.50 L 613.80 414.90 L 647.80 415.20 L 687.50 416.10 L 735.80 418.00 L 770.10 418.50 L 779.50 419.40 L 782.90 420.20 L 785.40 421.20 L 787.50 422.60 L 790.80 425.90 L 791.80 427.50 L 792.40 429.40 L 792.70 432.10 L 792.50 435.10 L 791.80 439.70 L 789.00 452.20 L 784.00 471.50 L 769.10 525.50 L 762.50 545.80 L 756.60 559.30 L 737.40 559.30 L 678.80 560.30 L 563.10 559.00 L 467.70 556.30 L 463.70 556.00 L 462.40 555.30 L 460.20 555.30 L 457.10 555.80 L 455.80 556.60 L 454.80 557.70 L 454.20 559.90 L 454.40 561.60 L 479.10 562.30 L 490.80 562.90 L 495.10 563.50 L 494.60 567.60 L 494.20 574.80 L 493.60 609.30 L 492.00 756.80 L 491.00 824.00 L 489.80 876.30 L 488.60 907.30 L 495.60 907.30 L 496.90 841.70 L 499.80 612.20 L 500.60 579.70 L 527.20 637.80 L 543.40 671.40 L 553.40 691.10 L 557.80 698.90 L 564.10 708.30 L 568.90 713.40 L 574.20 717.20 L 580.00 719.50 L 587.10 721.00 L 600.60 722.30 L 625.60 723.60 L 683.60 725.40 L 773.60 726.60 L 775.30 783.40 L 776.90 811.00 L 779.20 837.60 L 784.50 883.50 L 792.40 890.90 L 796.00 895.60 L 797.10 898.00 L 797.90 900.50 L 798.40 906.80 L 805.40 906.80 L 803.90 898.10 L 801.40 891.90 L 799.60 889.00 L 797.50 886.40 L 791.00 880.50 L 786.10 839.20 L 784.30 819.60 L 783.00 799.90 L 780.00 740.20 L 778.70 726.30 L 798.30 726.10 L 805.50 725.70 L 812.00 724.90 L 816.80 723.90 L 822.10 722.00 L 825.60 719.40 L 828.00 716.00 L 829.40 712.70 L 829.70 711.00 L 829.30 697.90 L 827.50 687.70 L 806.40 616.60 L 799.40 594.60 L 793.50 577.80 L 791.30 572.70 L 790.10 570.60 L 787.50 567.00 L 781.10 560.70 L 807.60 465.60 L 810.10 453.10 L 810.70 448.50 L 810.80 444.30 L 810.50 441.10 L 809.70 438.00 L 807.30 432.50 L 804.40 428.30 L 802.30 426.00 L 795.90 420.40 L 789.90 416.20 L 786.80 414.80 L 783.20 413.70 L 779.30 412.90 L 768.60 411.90 L 698.10 409.70 L 633.90 408.80 Z M 799.50 431.90 L 802.80 438.50 L 803.50 441.40 L 803.80 444.50 L 803.10 453.10 L 802.00 459.00 L 798.30 474.00 L 787.90 510.40 L 778.50 544.80 L 775.00 555.20 L 774.10 557.20 L 773.00 558.10 L 769.40 558.60 L 767.00 558.40 L 765.90 557.90 L 772.80 538.20 L 783.50 501.70 L 793.70 463.10 L 797.10 448.20 L 798.80 438.80 Z M 506.40 563.40 L 510.50 563.70 L 511.70 564.10 L 511.90 564.50 L 513.40 568.90 L 522.20 591.40 L 536.80 625.80 L 554.80 661.20 L 568.80 690.40 L 571.00 694.10 L 575.30 699.50 L 580.50 703.30 L 585.90 706.00 L 591.60 707.60 L 609.20 708.90 L 633.20 711.40 L 650.60 712.50 L 671.40 713.30 L 731.90 713.80 L 780.40 713.70 L 800.70 712.90 L 806.20 712.10 L 816.70 709.50 L 820.10 708.20 L 824.20 706.20 L 822.90 711.80 L 822.00 713.60 L 820.70 715.10 L 818.80 716.30 L 816.40 717.20 L 808.80 718.70 L 798.30 719.60 L 789.80 719.80 L 740.80 720.00 L 678.00 719.10 L 647.30 718.30 L 620.20 717.40 L 592.50 715.70 L 584.00 714.40 L 578.40 712.40 L 573.40 709.20 L 571.00 706.90 L 566.30 701.10 L 563.70 697.00 L 555.10 681.40 L 544.00 658.60 L 524.50 617.10 L 502.80 568.70 L 500.90 563.60 L 506.40 563.30 Z M 516.80 564.10 L 601.60 565.70 L 668.30 566.00 L 723.00 565.80 L 762.70 564.60 L 768.30 564.70 L 771.90 565.20 L 774.80 566.00 L 777.50 567.10 L 780.00 568.50 L 782.20 570.30 L 784.20 572.50 L 786.80 576.70 L 790.00 584.30 L 794.30 597.10 L 819.30 682.80 L 822.40 695.00 L 822.70 698.00 L 821.90 699.80 L 817.20 702.90 L 810.60 705.10 L 801.50 706.70 L 794.90 707.20 L 750.90 707.90 L 712.00 707.80 L 680.70 707.30 L 644.40 705.80 L 597.30 701.80 L 589.20 700.00 L 585.60 698.70 L 582.80 697.20 L 580.60 695.60 L 577.40 691.80 L 573.70 685.10 L 564.60 665.70 L 548.60 634.40 L 542.30 621.40 L 520.40 571.30 Z M 337.20 662.80 L 330.10 669.90 L 327.90 699.70 L 325.80 721.20 L 319.50 722.30 L 312.20 723.10 L 304.70 723.40 L 299.10 723.20 L 295.60 722.50 L 292.80 721.10 L 291.30 719.90 L 290.20 718.70 L 289.20 716.10 L 289.10 714.30 L 289.90 705.80 L 291.10 702.90 L 282.60 708.20 L 282.70 717.60 L 283.20 720.20 L 284.20 722.40 L 285.70 724.40 L 287.70 726.00 L 290.50 727.70 L 293.20 728.80 L 297.20 729.60 L 301.70 730.10 L 312.10 730.00 L 324.80 728.80 L 316.80 825.40 L 314.30 860.80 L 313.70 874.80 L 313.00 878.40 L 309.80 884.90 L 308.40 888.50 L 306.60 896.00 L 306.30 899.60 L 307.10 907.30 L 318.20 907.30 L 317.30 906.90 L 313.50 903.20 L 312.90 901.10 L 313.20 897.30 L 315.30 889.60 L 318.30 883.00 L 319.70 877.80 L 320.40 865.30 L 324.00 818.00 L 335.90 679.40 Z M 563.60 791.00 L 541.00 791.60 L 535.40 792.30 L 533.00 793.20 L 530.60 794.70 L 526.60 798.40 L 525.20 800.60 L 524.50 802.60 L 523.80 807.90 L 522.50 826.40 L 521.90 846.70 L 522.40 862.90 L 523.50 870.70 L 524.40 873.40 L 525.60 875.90 L 527.10 877.80 L 528.90 879.40 L 531.00 880.60 L 533.60 881.50 L 536.90 882.30 L 542.20 882.90 L 570.20 883.90 L 590.40 883.90 L 608.40 883.30 L 622.70 882.20 L 631.70 880.80 L 634.80 879.60 L 637.70 878.10 L 640.30 876.20 L 642.60 873.90 L 644.60 871.30 L 646.80 866.90 L 647.60 863.10 L 648.30 850.70 L 648.80 811.20 L 648.40 806.00 L 648.00 804.30 L 646.80 801.40 L 644.50 798.60 L 643.00 797.60 L 638.00 795.70 L 633.20 794.70 L 625.80 793.80 L 605.40 792.10 L 592.30 791.50 L 563.60 791.00 Z M 555.70 797.40 L 580.60 798.20 L 611.00 799.80 L 634.00 801.60 L 638.60 802.30 L 639.90 803.10 L 641.00 804.50 L 641.70 806.40 L 642.60 813.10 L 642.50 832.80 L 641.90 848.80 L 641.20 858.60 L 640.20 864.20 L 638.50 867.60 L 635.60 870.90 L 633.70 872.10 L 631.30 873.00 L 624.40 874.40 L 613.80 875.30 L 598.00 876.10 L 563.50 876.60 L 548.10 876.30 L 535.30 875.50 L 533.90 875.10 L 532.20 874.00 L 530.30 871.50 L 528.90 867.30 L 528.40 864.10 L 528.20 858.30 L 529.10 825.60 L 530.40 806.90 L 531.00 803.10 L 533.10 800.40 L 536.60 798.80 L 542.60 797.90 L 555.70 797.40 Z M 187.00 810.90 L 187.60 811.00 L 187.00 811.00 Z M 187.10 811.00 L 183.20 811.60 L 182.00 812.80 L 181.40 815.80 L 181.50 819.10 L 183.00 828.70 L 191.70 873.90 L 191.40 874.30 L 190.60 874.40 L 185.00 873.90 L 183.20 874.80 L 182.60 875.90 L 182.10 880.60 L 183.10 896.50 L 183.00 902.70 L 182.50 905.90 L 181.90 907.30 L 188.30 907.30 L 189.00 900.30 L 188.10 882.50 L 188.40 881.40 L 188.80 881.00 L 190.80 881.80 L 195.20 885.80 L 196.80 888.10 L 198.10 890.80 L 199.10 893.90 L 199.80 897.60 L 200.30 907.30 L 206.90 907.30 L 206.60 897.70 L 205.90 893.20 L 204.60 889.20 L 203.00 885.50 L 198.80 878.50 L 197.20 873.70 L 189.30 830.10 L 187.80 820.00 L 188.00 818.40 L 189.40 819.00 L 192.80 822.30 L 198.70 828.80 L 203.60 836.20 L 207.30 844.10 L 209.50 850.60 L 211.00 857.00 L 212.20 864.40 L 214.00 881.80 L 215.20 887.10 L 215.50 887.50 L 216.70 887.10 L 217.90 884.40 L 218.50 880.30 L 219.00 868.50 L 219.40 864.40 L 220.20 860.90 L 221.00 859.10 L 221.70 858.40 L 222.30 858.40 L 223.10 859.20 L 224.00 864.20 L 224.20 868.50 L 224.00 885.40 L 222.70 892.40 L 217.60 907.20 L 224.30 907.20 L 228.10 894.50 L 229.50 887.80 L 230.30 881.00 L 230.70 874.40 L 230.60 868.00 L 230.00 862.50 L 228.40 856.10 L 226.40 852.50 L 225.40 851.50 L 223.20 850.70 L 220.10 851.40 L 218.00 852.80 L 217.20 852.60 L 213.70 842.40 L 211.70 837.50 L 209.10 832.70 L 206.20 828.20 L 202.60 823.70 L 198.30 819.00 L 194.90 815.90 L 191.10 813.20 L 187.10 811.00 Z M 612.60 817.70 L 593.40 818.30 L 551.00 820.30 L 546.60 820.70 L 542.60 821.70 L 541.80 822.80 L 542.00 823.60 L 543.40 825.30 L 545.60 826.00 L 556.10 826.20 L 592.80 824.80 L 621.30 823.40 L 625.50 822.90 L 629.20 822.00 L 629.80 821.20 L 628.60 819.90 L 627.20 819.20 L 624.50 818.50 L 619.90 818.00 L 612.60 817.70 Z M 897.40 826.40 L 894.90 826.60 L 892.00 827.50 L 885.60 830.90 L 878.80 836.20 L 873.80 841.00 L 868.70 846.80 L 863.90 852.90 L 859.50 859.60 L 855.60 866.50 L 848.60 882.40 L 844.70 875.70 L 842.20 872.70 L 840.90 872.00 L 837.70 871.40 L 836.30 871.50 L 835.20 872.10 L 834.30 873.00 L 833.20 874.60 L 832.50 876.50 L 831.90 879.70 L 831.50 887.20 L 832.00 895.00 L 832.60 898.70 L 835.20 907.20 L 841.80 907.20 L 840.80 905.30 L 840.00 902.20 L 838.70 894.90 L 837.80 883.50 L 837.90 880.90 L 838.40 878.60 L 838.80 878.40 L 839.20 878.70 L 840.40 880.00 L 843.30 883.90 L 845.60 887.80 L 846.70 891.00 L 847.40 900.70 L 848.50 903.10 L 849.00 903.40 L 849.70 902.90 L 850.80 900.30 L 852.20 893.00 L 855.00 883.50 L 858.00 876.20 L 861.70 868.80 L 865.90 861.60 L 870.60 854.80 L 873.90 850.50 L 880.70 843.20 L 884.30 840.10 L 891.30 835.00 L 894.10 833.60 L 897.20 832.70 L 897.90 832.90 L 898.50 833.60 L 898.90 835.00 L 898.90 837.40 L 898.20 841.60 L 896.20 848.50 L 880.40 891.70 L 878.50 895.50 L 873.90 902.80 L 873.10 904.50 L 872.70 907.00 L 878.00 907.00 L 878.20 905.80 L 879.60 904.20 L 883.60 900.50 L 890.00 895.60 L 891.00 895.10 L 892.00 895.00 L 892.80 895.50 L 893.40 896.70 L 893.80 899.00 L 893.40 906.90 L 898.00 906.70 L 899.40 898.80 L 899.40 896.40 L 898.40 892.40 L 897.40 890.90 L 896.10 889.70 L 894.60 889.00 L 892.80 888.70 L 888.70 889.00 L 888.10 888.80 L 900.70 855.80 L 903.70 846.30 L 905.20 840.30 L 905.60 836.30 L 905.50 833.80 L 904.80 831.50 L 903.90 829.70 L 902.70 828.30 L 901.20 827.30 L 899.50 826.70 L 897.40 826.40 Z M 581.60 847.40 L 570.70 847.70 L 556.50 848.60 L 546.30 849.90 L 542.80 850.70 L 541.50 851.40 L 541.10 852.20 L 541.30 853.90 L 542.30 855.00 L 543.30 855.20 L 551.70 854.90 L 562.20 854.10 L 579.50 852.10 L 583.70 851.20 L 584.50 850.80 L 585.60 849.50 L 585.80 848.10 L 584.10 847.40 L 581.60 847.30 Z" fill="#efca87" fill-rule="nonzero" id="path2885" node-id="18" stroke="none" target-height="772.19995" target-width="724.19995" target-x="181.4" target-y="135.1"></path></svg>